<?xml version="1.0" encoding="utf-8" standalone="no"?>
<!DOCTYPE svg PUBLIC "-//W3C//DTD SVG 1.1//EN"
  "http://www.w3.org/Graphics/SVG/1.1/DTD/svg11.dtd">
<!-- Created with matplotlib (https://matplotlib.org/) -->
<svg height="259.09pt" version="1.1" viewBox="0 0 393.325 259.09" width="393.325pt" xmlns="http://www.w3.org/2000/svg" xmlns:xlink="http://www.w3.org/1999/xlink">
 <metadata>
  <rdf:RDF xmlns:cc="http://creativecommons.org/ns#" xmlns:dc="http://purl.org/dc/elements/1.1/" xmlns:rdf="http://www.w3.org/1999/02/22-rdf-syntax-ns#">
   <cc:Work>
    <dc:type rdf:resource="http://purl.org/dc/dcmitype/StillImage"/>
    <dc:date>2021-03-09T00:09:14.595223</dc:date>
    <dc:format>image/svg+xml</dc:format>
    <dc:creator>
     <cc:Agent>
      <dc:title>Matplotlib v3.3.3, https://matplotlib.org/</dc:title>
     </cc:Agent>
    </dc:creator>
   </cc:Work>
  </rdf:RDF>
 </metadata>
 <defs>
  <style type="text/css">*{stroke-linecap:butt;stroke-linejoin:round;}</style>
 </defs>
 <g id="figure_1">
  <g id="patch_1">
   <path d="M 0 259.09 
L 393.325 259.09 
L 393.325 0 
L 0 0 
z
" style="fill:none;"/>
  </g>
  <g id="axes_1">
   <g id="patch_2">
    <path d="M 51.325 224.64 
L 386.125 224.64 
L 386.125 7.2 
L 51.325 7.2 
z
" style="fill:#ffffff;"/>
   </g>
   <g id="matplotlib.axis_1">
    <g id="xtick_1">
     <g id="line2d_1">
      <defs>
       <path d="M 0 0 
L 0 3.5 
" id="m064e3c791d" style="stroke:#000000;stroke-width:0.8;"/>
      </defs>
      <g>
       <use style="stroke:#000000;stroke-width:0.8;" x="66.543182" xlink:href="#m064e3c791d" y="224.64"/>
      </g>
     </g>
     <g id="text_1">
      <!-- 0 -->
      <g transform="translate(64.043182 238.475937)scale(0.1 -0.1)">
       <defs>
        <path d="M 46.484375 35.15625 
Q 46.484375 21.09375 41.40625 10.9375 
Q 36.328125 0.78125 25 0.78125 
Q 13.671875 0.78125 8.390625 10.9375 
Q 3.125 21.09375 3.125 35.15625 
Q 3.125 49.21875 8.390625 59.171875 
Q 13.671875 69.140625 25 69.140625 
Q 36.328125 69.140625 41.40625 59.171875 
Q 46.484375 49.21875 46.484375 35.15625 
z
M 37.109375 35.15625 
Q 37.109375 47.65625 34.171875 54.6875 
Q 31.25 61.71875 25 61.71875 
Q 18.75 61.71875 15.625 54.6875 
Q 12.5 47.65625 12.5 35.15625 
Q 12.5 22.65625 15.625 15.421875 
Q 18.75 8.203125 25 8.203125 
Q 31.25 8.203125 34.171875 15.421875 
Q 37.109375 22.65625 37.109375 35.15625 
z
" id="SimHei-48"/>
       </defs>
       <use xlink:href="#SimHei-48"/>
      </g>
     </g>
    </g>
    <g id="xtick_2">
     <g id="line2d_2">
      <g>
       <use style="stroke:#000000;stroke-width:0.8;" x="104.77982" xlink:href="#m064e3c791d" y="224.64"/>
      </g>
     </g>
     <g id="text_2">
      <!-- 25 -->
      <g transform="translate(99.77982 238.475937)scale(0.1 -0.1)">
       <defs>
        <path d="M 44.53125 1.5625 
L 4.6875 1.5625 
L 4.6875 7.8125 
Q 7.03125 14.0625 11.125 19.328125 
Q 15.234375 24.609375 23.046875 31.25 
Q 28.90625 36.328125 31.4375 40.625 
Q 33.984375 44.921875 33.984375 50 
Q 33.984375 55.078125 31.828125 58.390625 
Q 29.6875 61.71875 25 61.71875 
Q 21.09375 61.71875 18.15625 58.203125 
Q 15.234375 54.6875 15.234375 45.703125 
L 6.25 45.703125 
Q 6.640625 57.03125 11.515625 63.078125 
Q 16.40625 69.140625 25.390625 69.140625 
Q 33.984375 69.140625 38.671875 63.859375 
Q 43.359375 58.59375 43.359375 49.609375 
Q 43.359375 42.1875 39.0625 36.71875 
Q 34.765625 31.25 28.515625 25.78125 
Q 21.484375 19.53125 18.75 16.40625 
Q 16.015625 13.28125 13.671875 8.984375 
L 44.53125 8.984375 
z
" id="SimHei-50"/>
        <path d="M 44.140625 25.78125 
Q 44.140625 14.0625 38.46875 7.421875 
Q 32.8125 0.78125 23.4375 0.78125 
Q 15.234375 0.78125 9.953125 6.25 
Q 4.6875 11.71875 4.296875 21.09375 
L 13.28125 21.09375 
Q 13.28125 15.234375 16.015625 11.71875 
Q 18.75 8.203125 23.828125 8.203125 
Q 28.90625 8.203125 31.828125 12.5 
Q 34.765625 16.796875 34.765625 25.78125 
Q 34.765625 33.59375 32.21875 37.296875 
Q 29.6875 41.015625 25.390625 41.015625 
Q 21.875 41.015625 19.328125 39.453125 
Q 16.796875 37.890625 14.453125 33.984375 
L 6.640625 33.984375 
L 8.984375 68.359375 
L 42.578125 68.359375 
L 42.578125 60.9375 
L 16.40625 60.9375 
L 14.84375 42.96875 
Q 17.1875 45.3125 19.921875 46.484375 
Q 22.65625 47.65625 27.34375 47.65625 
Q 34.765625 47.65625 39.453125 41.984375 
Q 44.140625 36.328125 44.140625 25.78125 
z
" id="SimHei-53"/>
       </defs>
       <use xlink:href="#SimHei-50"/>
       <use x="50" xlink:href="#SimHei-53"/>
      </g>
     </g>
    </g>
    <g id="xtick_3">
     <g id="line2d_3">
      <g>
       <use style="stroke:#000000;stroke-width:0.8;" x="143.016457" xlink:href="#m064e3c791d" y="224.64"/>
      </g>
     </g>
     <g id="text_3">
      <!-- 50 -->
      <g transform="translate(138.016457 238.475937)scale(0.1 -0.1)">
       <use xlink:href="#SimHei-53"/>
       <use x="50" xlink:href="#SimHei-48"/>
      </g>
     </g>
    </g>
    <g id="xtick_4">
     <g id="line2d_4">
      <g>
       <use style="stroke:#000000;stroke-width:0.8;" x="181.253095" xlink:href="#m064e3c791d" y="224.64"/>
      </g>
     </g>
     <g id="text_4">
      <!-- 75 -->
      <g transform="translate(176.253095 238.475937)scale(0.1 -0.1)">
       <defs>
        <path d="M 43.359375 60.15625 
L 25 1.5625 
L 16.015625 1.5625 
L 34.765625 60.9375 
L 6.25 60.9375 
L 6.25 68.359375 
L 43.359375 68.359375 
z
" id="SimHei-55"/>
       </defs>
       <use xlink:href="#SimHei-55"/>
       <use x="50" xlink:href="#SimHei-53"/>
      </g>
     </g>
    </g>
    <g id="xtick_5">
     <g id="line2d_5">
      <g>
       <use style="stroke:#000000;stroke-width:0.8;" x="219.489733" xlink:href="#m064e3c791d" y="224.64"/>
      </g>
     </g>
     <g id="text_5">
      <!-- 100 -->
      <g transform="translate(211.989733 238.475937)scale(0.1 -0.1)">
       <defs>
        <path d="M 30.46875 1.5625 
L 21.484375 1.5625 
L 21.484375 53.515625 
L 9.765625 53.515625 
L 9.765625 58.203125 
Q 16.796875 58.203125 20.703125 60.9375 
Q 24.609375 63.671875 25.78125 69.140625 
L 30.46875 69.140625 
z
" id="SimHei-49"/>
       </defs>
       <use xlink:href="#SimHei-49"/>
       <use x="50" xlink:href="#SimHei-48"/>
       <use x="100" xlink:href="#SimHei-48"/>
      </g>
     </g>
    </g>
    <g id="xtick_6">
     <g id="line2d_6">
      <g>
       <use style="stroke:#000000;stroke-width:0.8;" x="257.72637" xlink:href="#m064e3c791d" y="224.64"/>
      </g>
     </g>
     <g id="text_6">
      <!-- 125 -->
      <g transform="translate(250.22637 238.475937)scale(0.1 -0.1)">
       <use xlink:href="#SimHei-49"/>
       <use x="50" xlink:href="#SimHei-50"/>
       <use x="100" xlink:href="#SimHei-53"/>
      </g>
     </g>
    </g>
    <g id="xtick_7">
     <g id="line2d_7">
      <g>
       <use style="stroke:#000000;stroke-width:0.8;" x="295.963008" xlink:href="#m064e3c791d" y="224.64"/>
      </g>
     </g>
     <g id="text_7">
      <!-- 150 -->
      <g transform="translate(288.463008 238.475937)scale(0.1 -0.1)">
       <use xlink:href="#SimHei-49"/>
       <use x="50" xlink:href="#SimHei-53"/>
       <use x="100" xlink:href="#SimHei-48"/>
      </g>
     </g>
    </g>
    <g id="xtick_8">
     <g id="line2d_8">
      <g>
       <use style="stroke:#000000;stroke-width:0.8;" x="334.199646" xlink:href="#m064e3c791d" y="224.64"/>
      </g>
     </g>
     <g id="text_8">
      <!-- 175 -->
      <g transform="translate(326.699646 238.475937)scale(0.1 -0.1)">
       <use xlink:href="#SimHei-49"/>
       <use x="50" xlink:href="#SimHei-55"/>
       <use x="100" xlink:href="#SimHei-53"/>
      </g>
     </g>
    </g>
    <g id="xtick_9">
     <g id="line2d_9">
      <g>
       <use style="stroke:#000000;stroke-width:0.8;" x="372.436284" xlink:href="#m064e3c791d" y="224.64"/>
      </g>
     </g>
     <g id="text_9">
      <!-- 200 -->
      <g transform="translate(364.936284 238.475937)scale(0.1 -0.1)">
       <use xlink:href="#SimHei-50"/>
       <use x="50" xlink:href="#SimHei-48"/>
       <use x="100" xlink:href="#SimHei-48"/>
      </g>
     </g>
    </g>
    <g id="text_10">
     <!-- Number of Generation -->
     <g transform="translate(168.725 250.600937)scale(0.1 -0.1)">
      <defs>
       <path d="M 44.921875 1.5625 
L 35.15625 1.5625 
L 13.671875 50 
L 13.28125 50 
L 13.28125 1.5625 
L 4.296875 1.5625 
L 4.296875 68.359375 
L 14.0625 68.359375 
L 35.546875 19.921875 
L 35.9375 19.921875 
L 35.9375 68.359375 
L 44.921875 68.359375 
z
" id="SimHei-78"/>
       <path d="M 44.140625 1.5625 
L 36.328125 1.5625 
L 36.328125 9.765625 
Q 33.203125 5.46875 29.484375 3.125 
Q 25.78125 0.78125 19.921875 0.78125 
Q 12.890625 0.78125 9.375 4.6875 
Q 5.859375 8.59375 5.859375 14.453125 
L 5.859375 45.3125 
L 13.671875 45.3125 
L 13.671875 17.1875 
Q 13.671875 12.5 16.015625 9.765625 
Q 18.359375 7.03125 22.265625 7.03125 
Q 27.34375 7.03125 31.828125 12.296875 
Q 36.328125 17.578125 36.328125 25.390625 
L 36.328125 45.3125 
L 44.140625 45.3125 
z
" id="SimHei-117"/>
       <path d="M 48.046875 1.5625 
L 40.234375 1.5625 
L 40.234375 33.203125 
Q 40.234375 35.546875 39.453125 37.109375 
Q 38.671875 38.671875 36.328125 38.671875 
Q 33.59375 38.671875 31.25 35.734375 
Q 28.90625 32.8125 28.90625 28.125 
L 28.90625 1.5625 
L 21.09375 1.5625 
L 21.09375 33.203125 
Q 21.09375 35.546875 20.3125 37.109375 
Q 19.53125 38.671875 17.1875 38.671875 
Q 14.453125 38.671875 12.109375 35.734375 
Q 9.765625 32.8125 9.765625 28.125 
L 9.765625 1.5625 
L 1.953125 1.5625 
L 1.953125 45.3125 
L 9.765625 45.3125 
L 9.765625 39.453125 
Q 11.71875 42.578125 14.453125 44.328125 
Q 17.1875 46.09375 20.3125 46.09375 
Q 23.4375 46.09375 25.578125 44.328125 
Q 27.734375 42.578125 28.515625 39.453125 
Q 30.46875 42.578125 33 44.328125 
Q 35.546875 46.09375 38.671875 46.09375 
Q 43.359375 46.09375 45.703125 43.546875 
Q 48.046875 41.015625 48.046875 36.328125 
z
" id="SimHei-109"/>
       <path d="M 44.53125 23.4375 
Q 44.53125 12.109375 39.0625 6.4375 
Q 33.59375 0.78125 25.78125 0.78125 
Q 21.484375 0.78125 18.359375 2.34375 
Q 15.234375 3.90625 12.890625 7.421875 
L 12.890625 1.5625 
L 5.078125 1.5625 
L 5.078125 68.359375 
L 12.890625 68.359375 
L 12.890625 39.453125 
Q 15.234375 42.96875 18.359375 44.71875 
Q 21.484375 46.484375 25.78125 46.484375 
Q 33.59375 46.484375 39.0625 40.625 
Q 44.53125 34.765625 44.53125 23.4375 
z
M 35.9375 23.4375 
Q 35.9375 30.859375 33 35.15625 
Q 30.078125 39.453125 24.21875 39.453125 
Q 19.53125 39.453125 16.203125 35.15625 
Q 12.890625 30.859375 12.890625 23.4375 
Q 12.890625 16.015625 16.203125 11.90625 
Q 19.53125 7.8125 24.21875 7.8125 
Q 30.078125 7.8125 33 11.90625 
Q 35.9375 16.015625 35.9375 23.4375 
z
" id="SimHei-98"/>
       <path d="M 44.921875 16.40625 
Q 44.140625 9.375 38.671875 5.078125 
Q 33.203125 0.78125 25.78125 0.78125 
Q 16.40625 0.78125 10.34375 6.828125 
Q 4.296875 12.890625 4.296875 23.4375 
Q 4.296875 33.984375 10.34375 40.03125 
Q 16.40625 46.09375 25.78125 46.09375 
Q 33.984375 46.09375 39.25 40.8125 
Q 44.53125 35.546875 44.53125 23.4375 
L 12.890625 23.4375 
Q 12.890625 14.84375 16.59375 11.328125 
Q 20.3125 7.8125 25.78125 7.8125 
Q 30.078125 7.8125 32.8125 9.953125 
Q 35.546875 12.109375 36.328125 16.40625 
z
M 35.546875 29.6875 
Q 34.765625 35.15625 32.03125 37.296875 
Q 29.296875 39.453125 25 39.453125 
Q 21.09375 39.453125 17.96875 37.296875 
Q 14.84375 35.15625 13.28125 29.6875 
z
" id="SimHei-101"/>
       <path d="M 39.453125 37.5 
Q 32.03125 38.671875 26.953125 35.34375 
Q 21.875 32.03125 18.359375 23.828125 
L 18.359375 1.5625 
L 10.546875 1.5625 
L 10.546875 45.3125 
L 18.359375 45.3125 
L 18.359375 33.984375 
Q 21.875 40.234375 27.140625 43.15625 
Q 32.421875 46.09375 39.453125 46.09375 
z
" id="SimHei-114"/>
       <path id="SimHei-32"/>
       <path d="M 46.09375 23.4375 
Q 46.09375 13.28125 39.84375 7.03125 
Q 33.59375 0.78125 25 0.78125 
Q 16.40625 0.78125 10.15625 7.03125 
Q 3.90625 13.28125 3.90625 23.4375 
Q 3.90625 33.59375 10.15625 39.84375 
Q 16.40625 46.09375 25 46.09375 
Q 33.59375 46.09375 39.84375 39.84375 
Q 46.09375 33.59375 46.09375 23.4375 
z
M 37.5 23.4375 
Q 37.5 31.25 33.59375 35.15625 
Q 29.6875 39.0625 25 39.0625 
Q 20.3125 39.0625 16.40625 35.15625 
Q 12.5 31.25 12.5 23.4375 
Q 12.5 15.625 16.40625 11.71875 
Q 20.3125 7.8125 25 7.8125 
Q 29.6875 7.8125 33.59375 11.71875 
Q 37.5 15.625 37.5 23.4375 
z
" id="SimHei-111"/>
       <path d="M 44.921875 59.375 
Q 42.96875 60.546875 40.234375 61.328125 
Q 37.5 62.109375 33.203125 62.109375 
Q 28.90625 62.109375 27.34375 59.953125 
Q 25.78125 57.8125 25.78125 54.6875 
L 25.78125 45.3125 
L 41.796875 45.3125 
L 41.796875 39.0625 
L 25.78125 39.0625 
L 25.78125 1.5625 
L 17.96875 1.5625 
L 17.96875 39.0625 
L 4.6875 39.0625 
L 4.6875 45.3125 
L 17.96875 45.3125 
L 17.96875 54.296875 
Q 17.96875 61.328125 22.265625 65.234375 
Q 26.5625 69.140625 33.59375 69.140625 
Q 37.890625 69.140625 40.421875 68.546875 
Q 42.96875 67.96875 44.921875 67.1875 
z
" id="SimHei-102"/>
       <path d="M 44.921875 0.78125 
L 38.28125 0.78125 
L 37.109375 6.25 
Q 35.546875 3.90625 32.21875 2.34375 
Q 28.90625 0.78125 25 0.78125 
Q 16.796875 0.78125 10.34375 8.390625 
Q 3.90625 16.015625 3.90625 32.8125 
Q 3.90625 51.171875 9.765625 60.15625 
Q 15.625 69.140625 25.78125 69.140625 
Q 34.765625 69.140625 39.84375 62.5 
Q 44.921875 55.859375 44.921875 45.3125 
L 36.328125 45.3125 
Q 36.328125 53.515625 33.59375 57.609375 
Q 30.859375 61.71875 25.78125 61.71875 
Q 19.53125 61.71875 16.40625 55.265625 
Q 13.28125 48.828125 13.28125 33.59375 
Q 13.28125 19.140625 17.1875 13.671875 
Q 21.09375 8.203125 26.171875 8.203125 
Q 31.25 8.203125 34.171875 11.90625 
Q 37.109375 15.625 37.109375 23.4375 
L 37.109375 27.734375 
L 25 27.734375 
L 25 35.15625 
L 44.921875 35.15625 
z
" id="SimHei-71"/>
       <path d="M 44.140625 1.5625 
L 36.328125 1.5625 
L 36.328125 29.6875 
Q 36.328125 34.375 33.984375 37.109375 
Q 31.640625 39.84375 27.734375 39.84375 
Q 22.65625 39.84375 18.15625 34.5625 
Q 13.671875 29.296875 13.671875 21.484375 
L 13.671875 1.5625 
L 5.859375 1.5625 
L 5.859375 45.3125 
L 13.671875 45.3125 
L 13.671875 37.109375 
Q 16.796875 41.40625 20.5 43.75 
Q 24.21875 46.09375 30.078125 46.09375 
Q 37.109375 46.09375 40.625 42.1875 
Q 44.140625 38.28125 44.140625 32.421875 
z
" id="SimHei-110"/>
       <path d="M 45.3125 1.5625 
L 35.9375 1.5625 
Q 35.15625 2.34375 34.765625 3.703125 
Q 34.375 5.078125 34.375 7.03125 
Q 31.640625 3.90625 27.734375 2.34375 
Q 23.828125 0.78125 19.53125 0.78125 
Q 13.28125 0.78125 8.984375 3.90625 
Q 4.6875 7.03125 4.6875 12.890625 
Q 4.6875 18.75 8.59375 22.265625 
Q 12.5 25.78125 20.703125 26.953125 
Q 26.171875 27.734375 30.265625 28.90625 
Q 34.375 30.078125 34.375 32.03125 
Q 34.375 34.375 32.609375 36.71875 
Q 30.859375 39.0625 25 39.0625 
Q 20.3125 39.0625 18.15625 37.296875 
Q 16.015625 35.546875 15.234375 32.421875 
L 6.640625 32.421875 
Q 7.421875 38.671875 12.296875 42.375 
Q 17.1875 46.09375 25 46.09375 
Q 33.59375 46.09375 37.890625 42.1875 
Q 42.1875 38.28125 42.1875 31.25 
L 42.1875 9.765625 
Q 42.1875 7.421875 42.96875 5.46875 
Q 43.75 3.515625 45.3125 1.5625 
z
M 34.375 16.015625 
L 34.375 23.828125 
Q 32.03125 23.046875 29.875 22.453125 
Q 27.734375 21.875 22.65625 21.09375 
Q 16.796875 20.3125 15.03125 18.359375 
Q 13.28125 16.40625 13.28125 13.671875 
Q 13.28125 11.328125 15.03125 9.5625 
Q 16.796875 7.8125 20.3125 7.8125 
Q 23.828125 7.8125 27.921875 9.765625 
Q 32.03125 11.71875 34.375 16.015625 
z
" id="SimHei-97"/>
       <path d="M 43.359375 2.734375 
Q 41.40625 1.953125 38.859375 1.359375 
Q 36.328125 0.78125 32.03125 0.78125 
Q 25 0.78125 20.703125 4.6875 
Q 16.40625 8.59375 16.40625 15.625 
L 16.40625 39.0625 
L 3.125 39.0625 
L 3.125 45.3125 
L 16.40625 45.3125 
L 16.40625 60.546875 
L 24.21875 60.546875 
L 24.21875 45.3125 
L 40.234375 45.3125 
L 40.234375 39.0625 
L 24.21875 39.0625 
L 24.21875 15.234375 
Q 24.21875 12.109375 25.78125 9.953125 
Q 27.34375 7.8125 31.640625 7.8125 
Q 35.9375 7.8125 38.671875 8.59375 
Q 41.40625 9.375 43.359375 10.546875 
z
" id="SimHei-116"/>
       <path d="M 28.515625 57.8125 
L 20.703125 57.8125 
L 20.703125 67.96875 
L 28.515625 67.96875 
z
M 28.515625 1.5625 
L 20.703125 1.5625 
L 20.703125 45.3125 
L 28.515625 45.3125 
z
" id="SimHei-105"/>
      </defs>
      <use xlink:href="#SimHei-78"/>
      <use x="50" xlink:href="#SimHei-117"/>
      <use x="100" xlink:href="#SimHei-109"/>
      <use x="150" xlink:href="#SimHei-98"/>
      <use x="200" xlink:href="#SimHei-101"/>
      <use x="250" xlink:href="#SimHei-114"/>
      <use x="300" xlink:href="#SimHei-32"/>
      <use x="350" xlink:href="#SimHei-111"/>
      <use x="400" xlink:href="#SimHei-102"/>
      <use x="450" xlink:href="#SimHei-32"/>
      <use x="500" xlink:href="#SimHei-71"/>
      <use x="550" xlink:href="#SimHei-101"/>
      <use x="600" xlink:href="#SimHei-110"/>
      <use x="650" xlink:href="#SimHei-101"/>
      <use x="700" xlink:href="#SimHei-114"/>
      <use x="750" xlink:href="#SimHei-97"/>
      <use x="800" xlink:href="#SimHei-116"/>
      <use x="850" xlink:href="#SimHei-105"/>
      <use x="900" xlink:href="#SimHei-111"/>
      <use x="950" xlink:href="#SimHei-110"/>
     </g>
    </g>
   </g>
   <g id="matplotlib.axis_2">
    <g id="ytick_1">
     <g id="line2d_10">
      <defs>
       <path d="M 0 0 
L -3.5 0 
" id="m7d404e97dd" style="stroke:#000000;stroke-width:0.8;"/>
      </defs>
      <g>
       <use style="stroke:#000000;stroke-width:0.8;" x="51.325" xlink:href="#m7d404e97dd" y="217.284077"/>
      </g>
     </g>
     <g id="text_11">
      <!-- 15000 -->
      <g transform="translate(19.325 220.702046)scale(0.1 -0.1)">
       <use xlink:href="#SimHei-49"/>
       <use x="50" xlink:href="#SimHei-53"/>
       <use x="100" xlink:href="#SimHei-48"/>
       <use x="150" xlink:href="#SimHei-48"/>
       <use x="200" xlink:href="#SimHei-48"/>
      </g>
     </g>
    </g>
    <g id="ytick_2">
     <g id="line2d_11">
      <g>
       <use style="stroke:#000000;stroke-width:0.8;" x="51.325" xlink:href="#m7d404e97dd" y="190.543129"/>
      </g>
     </g>
     <g id="text_12">
      <!-- 15250 -->
      <g transform="translate(19.325 193.961098)scale(0.1 -0.1)">
       <use xlink:href="#SimHei-49"/>
       <use x="50" xlink:href="#SimHei-53"/>
       <use x="100" xlink:href="#SimHei-50"/>
       <use x="150" xlink:href="#SimHei-53"/>
       <use x="200" xlink:href="#SimHei-48"/>
      </g>
     </g>
    </g>
    <g id="ytick_3">
     <g id="line2d_12">
      <g>
       <use style="stroke:#000000;stroke-width:0.8;" x="51.325" xlink:href="#m7d404e97dd" y="163.802181"/>
      </g>
     </g>
     <g id="text_13">
      <!-- 15500 -->
      <g transform="translate(19.325 167.22015)scale(0.1 -0.1)">
       <use xlink:href="#SimHei-49"/>
       <use x="50" xlink:href="#SimHei-53"/>
       <use x="100" xlink:href="#SimHei-53"/>
       <use x="150" xlink:href="#SimHei-48"/>
       <use x="200" xlink:href="#SimHei-48"/>
      </g>
     </g>
    </g>
    <g id="ytick_4">
     <g id="line2d_13">
      <g>
       <use style="stroke:#000000;stroke-width:0.8;" x="51.325" xlink:href="#m7d404e97dd" y="137.061233"/>
      </g>
     </g>
     <g id="text_14">
      <!-- 15750 -->
      <g transform="translate(19.325 140.479202)scale(0.1 -0.1)">
       <use xlink:href="#SimHei-49"/>
       <use x="50" xlink:href="#SimHei-53"/>
       <use x="100" xlink:href="#SimHei-55"/>
       <use x="150" xlink:href="#SimHei-53"/>
       <use x="200" xlink:href="#SimHei-48"/>
      </g>
     </g>
    </g>
    <g id="ytick_5">
     <g id="line2d_14">
      <g>
       <use style="stroke:#000000;stroke-width:0.8;" x="51.325" xlink:href="#m7d404e97dd" y="110.320285"/>
      </g>
     </g>
     <g id="text_15">
      <!-- 16000 -->
      <g transform="translate(19.325 113.738253)scale(0.1 -0.1)">
       <defs>
        <path d="M 44.53125 24.21875 
Q 44.53125 13.28125 39.84375 7.03125 
Q 35.15625 0.78125 25.78125 0.78125 
Q 16.40625 0.78125 10.9375 8.59375 
Q 5.46875 16.40625 5.46875 33.984375 
Q 5.46875 50 11.125 59.5625 
Q 16.796875 69.140625 27.34375 69.140625 
Q 34.765625 69.140625 39.25 63.671875 
Q 43.75 58.203125 43.75 51.5625 
L 34.765625 51.5625 
Q 34.765625 55.46875 32.609375 58.59375 
Q 30.46875 61.71875 26.953125 61.71875 
Q 21.09375 61.71875 17.96875 55.65625 
Q 14.84375 49.609375 14.453125 37.109375 
Q 17.1875 42.1875 20.3125 44.140625 
Q 23.4375 46.09375 27.734375 46.09375 
Q 35.15625 46.09375 39.84375 40.234375 
Q 44.53125 34.375 44.53125 24.21875 
z
M 35.15625 24.21875 
Q 35.15625 31.25 32.8125 35.15625 
Q 30.46875 39.0625 26.171875 39.0625 
Q 21.09375 39.0625 18.15625 35.15625 
Q 15.234375 31.25 15.234375 25.78125 
Q 15.234375 17.1875 18.15625 12.5 
Q 21.09375 7.8125 26.171875 7.8125 
Q 29.6875 7.8125 32.421875 11.328125 
Q 35.15625 14.84375 35.15625 24.21875 
z
" id="SimHei-54"/>
       </defs>
       <use xlink:href="#SimHei-49"/>
       <use x="50" xlink:href="#SimHei-54"/>
       <use x="100" xlink:href="#SimHei-48"/>
       <use x="150" xlink:href="#SimHei-48"/>
       <use x="200" xlink:href="#SimHei-48"/>
      </g>
     </g>
    </g>
    <g id="ytick_6">
     <g id="line2d_15">
      <g>
       <use style="stroke:#000000;stroke-width:0.8;" x="51.325" xlink:href="#m7d404e97dd" y="83.579337"/>
      </g>
     </g>
     <g id="text_16">
      <!-- 16250 -->
      <g transform="translate(19.325 86.997305)scale(0.1 -0.1)">
       <use xlink:href="#SimHei-49"/>
       <use x="50" xlink:href="#SimHei-54"/>
       <use x="100" xlink:href="#SimHei-50"/>
       <use x="150" xlink:href="#SimHei-53"/>
       <use x="200" xlink:href="#SimHei-48"/>
      </g>
     </g>
    </g>
    <g id="ytick_7">
     <g id="line2d_16">
      <g>
       <use style="stroke:#000000;stroke-width:0.8;" x="51.325" xlink:href="#m7d404e97dd" y="56.838388"/>
      </g>
     </g>
     <g id="text_17">
      <!-- 16500 -->
      <g transform="translate(19.325 60.256357)scale(0.1 -0.1)">
       <use xlink:href="#SimHei-49"/>
       <use x="50" xlink:href="#SimHei-54"/>
       <use x="100" xlink:href="#SimHei-53"/>
       <use x="150" xlink:href="#SimHei-48"/>
       <use x="200" xlink:href="#SimHei-48"/>
      </g>
     </g>
    </g>
    <g id="ytick_8">
     <g id="line2d_17">
      <g>
       <use style="stroke:#000000;stroke-width:0.8;" x="51.325" xlink:href="#m7d404e97dd" y="30.09744"/>
      </g>
     </g>
     <g id="text_18">
      <!-- 16750 -->
      <g transform="translate(19.325 33.515409)scale(0.1 -0.1)">
       <use xlink:href="#SimHei-49"/>
       <use x="50" xlink:href="#SimHei-54"/>
       <use x="100" xlink:href="#SimHei-55"/>
       <use x="150" xlink:href="#SimHei-53"/>
       <use x="200" xlink:href="#SimHei-48"/>
      </g>
     </g>
    </g>
    <g id="text_19">
     <!-- Value -->
     <g transform="translate(14.035938 128.42)rotate(-90)scale(0.1 -0.1)">
      <defs>
       <path d="M 48.046875 68.359375 
L 28.515625 0.78125 
L 20.703125 0.78125 
L 1.171875 68.359375 
L 10.546875 68.359375 
L 24.21875 17.1875 
L 25 17.1875 
L 38.671875 68.359375 
z
" id="SimHei-86"/>
       <path d="M 28.90625 1.5625 
L 21.09375 1.5625 
L 21.09375 68.359375 
L 28.90625 68.359375 
z
" id="SimHei-108"/>
      </defs>
      <use xlink:href="#SimHei-86"/>
      <use x="50" xlink:href="#SimHei-97"/>
      <use x="100" xlink:href="#SimHei-108"/>
      <use x="150" xlink:href="#SimHei-117"/>
      <use x="200" xlink:href="#SimHei-101"/>
     </g>
    </g>
   </g>
   <g id="line2d_18">
    <path clip-path="url(#p9993c85b04)" d="M 66.543182 214.756364 
L 68.072647 184.608574 
L 69.602113 161.851866 
L 71.131578 161.393363 
L 72.661044 144.368842 
L 74.190509 125.811196 
L 75.719975 85.096621 
L 77.24944 61.080943 
L 78.778906 67.215638 
L 80.308371 57.289804 
L 81.837837 54.394303 
L 83.367302 47.332063 
L 84.896768 44.04823 
L 86.426233 47.867805 
L 87.955699 33.346008 
L 89.485164 39.250738 
L 91.01463 39.982142 
L 92.544095 36.372955 
L 94.073561 38.085277 
L 95.603026 28.814705 
L 97.132492 41.356153 
L 98.661958 29.820329 
L 100.191423 38.208095 
L 101.720889 29.248061 
L 103.250354 35.584288 
L 104.77982 32.187647 
L 106.309285 42.080996 
L 107.838751 33.651374 
L 109.368216 41.595086 
L 110.897682 42.436977 
L 112.427147 41.811592 
L 115.486078 24.729278 
L 117.015544 29.885817 
L 118.545009 37.771734 
L 120.074475 32.851524 
L 121.60394 29.826453 
L 124.662871 35.625805 
L 126.192337 38.709965 
L 127.721802 38.337997 
L 129.251268 42.330398 
L 130.780733 28.656839 
L 132.310199 29.983868 
L 133.839664 39.267291 
L 135.36913 34.934874 
L 136.898595 43.617456 
L 138.428061 40.679044 
L 139.957526 28.62616 
L 141.486992 36.041401 
L 143.016457 33.744915 
L 144.545923 29.893829 
L 146.075388 41.922868 
L 147.604854 34.891704 
L 149.134319 28.999585 
L 150.663785 41.088583 
L 152.19325 23.589893 
L 153.722716 28.540605 
L 155.252181 25.2867 
L 156.781647 27.692899 
L 158.311112 27.472423 
L 159.840578 34.945095 
L 161.370043 22.50595 
L 162.899509 23.823236 
L 164.428974 37.430607 
L 165.95844 21.726186 
L 167.487905 28.479155 
L 169.017371 31.986656 
L 170.546836 28.625222 
L 172.076302 33.902163 
L 173.605767 20.933328 
L 175.135233 24.381318 
L 176.664698 35.706325 
L 178.194164 29.748627 
L 179.72363 20.592455 
L 181.253095 35.260649 
L 182.782561 29.155335 
L 184.312026 30.067638 
L 185.841492 29.503773 
L 187.370957 31.944795 
L 188.900423 35.822791 
L 190.429888 36.389041 
L 191.959354 34.860177 
L 193.488819 31.384064 
L 195.018285 26.925416 
L 196.54775 33.897929 
L 198.077216 23.349697 
L 199.606681 36.284202 
L 201.136147 46.963817 
L 202.665612 32.759925 
L 204.195078 31.573308 
L 205.724543 37.799873 
L 207.254009 31.739903 
L 208.783474 29.698819 
L 210.31294 31.373308 
L 211.842405 38.08084 
L 213.371871 38.186854 
L 214.901336 30.932685 
L 216.430802 27.461783 
L 217.960267 32.923382 
L 219.489733 32.919575 
L 221.019198 33.803137 
L 222.548664 37.476669 
L 224.078129 34.881869 
L 225.607595 23.864033 
L 227.13706 26.141055 
L 228.666526 32.460942 
L 230.195991 34.884052 
L 231.725457 35.354834 
L 233.254922 46.327226 
L 234.784388 41.647487 
L 236.313853 28.274128 
L 237.843319 33.260222 
L 239.372784 51.721583 
L 240.90225 35.315454 
L 242.431715 32.556176 
L 243.961181 31.753214 
L 245.490646 26.840849 
L 247.020112 27.736617 
L 248.549577 42.018386 
L 250.079043 40.278411 
L 251.608508 27.91525 
L 253.137974 28.878701 
L 254.667439 30.65822 
L 256.196905 35.657633 
L 257.72637 30.006719 
L 259.255836 29.59924 
L 260.785302 34.044576 
L 262.314767 38.920726 
L 263.844233 33.298695 
L 265.373698 19.123688 
L 266.903164 27.616921 
L 268.432629 33.669822 
L 269.962095 29.902708 
L 271.49156 28.297716 
L 273.021026 41.06977 
L 274.550491 34.634613 
L 276.079957 32.92655 
L 277.609422 21.922754 
L 279.138888 21.799371 
L 280.668353 38.485965 
L 282.197819 35.907621 
L 283.727284 22.26051 
L 285.25675 26.038804 
L 286.786215 28.064059 
L 288.315681 24.856967 
L 289.845146 48.310096 
L 291.374612 24.0055 
L 292.904077 28.609433 
L 294.433543 37.992719 
L 295.963008 28.42488 
L 297.492474 45.161025 
L 299.021939 45.366328 
L 300.551405 29.501522 
L 302.08087 38.39413 
L 303.610336 34.644706 
L 305.139801 36.148167 
L 306.669267 39.00964 
L 308.198732 26.871443 
L 309.728198 36.48623 
L 311.257663 36.915035 
L 312.787129 19.529948 
L 314.316594 27.116064 
L 315.84606 42.470172 
L 317.375525 23.28055 
L 318.904991 31.751046 
L 320.434456 21.354599 
L 321.963922 32.926817 
L 323.493387 37.469155 
L 325.022853 43.898643 
L 326.552318 33.662225 
L 328.081784 41.060629 
L 329.611249 33.673784 
L 331.140715 31.202062 
L 332.67018 29.824772 
L 334.199646 31.704399 
L 335.729111 35.894033 
L 337.258577 22.751799 
L 338.788042 30.210563 
L 340.317508 25.378221 
L 341.846974 20.9261 
L 344.905905 41.529759 
L 346.43537 28.63273 
L 347.964836 30.141741 
L 349.494301 41.474472 
L 351.023767 29.266814 
L 352.553232 31.947578 
L 354.082698 38.917727 
L 355.612163 37.684287 
L 357.141629 32.278568 
L 358.671094 24.18065 
L 360.20056 29.004618 
L 361.730025 36.393157 
L 363.259491 26.198192 
L 364.788956 25.509444 
L 366.318422 23.611435 
L 367.847887 23.369287 
L 369.377353 35.180246 
L 370.906818 21.869017 
L 370.906818 21.869017 
" style="fill:none;stroke:#1f77b4;stroke-linecap:square;stroke-width:1.5;"/>
   </g>
   <g id="line2d_19">
    <path clip-path="url(#p9993c85b04)" d="M 66.543182 53.743165 
L 68.072647 53.743165 
L 69.602113 47.182614 
L 71.131578 39.011202 
L 75.719975 39.011202 
L 77.24944 26.223339 
L 78.778906 24.232452 
L 80.308371 24.232452 
L 81.837837 23.436547 
L 83.367302 23.436547 
L 84.896768 22.812979 
L 86.426233 22.692035 
L 87.955699 22.087229 
L 89.485164 21.970138 
L 91.01463 21.546137 
L 92.544095 20.103229 
L 95.603026 20.053903 
L 97.132492 19.83343 
L 98.661958 19.83343 
L 100.191423 18.10934 
L 101.720889 18.10934 
L 103.250354 17.986153 
L 107.838751 17.936795 
L 109.368216 17.790891 
L 110.897682 17.790891 
L 112.427147 17.638199 
L 115.486078 17.605344 
L 120.074475 17.342239 
L 129.251268 17.223378 
L 149.134319 17.113995 
L 159.840578 17.088924 
L 360.20056 17.083636 
L 370.906818 17.083636 
L 370.906818 17.083636 
" style="fill:none;stroke:#ff7f0e;stroke-linecap:square;stroke-width:1.5;"/>
   </g>
   <g id="patch_3">
    <path d="M 51.325 224.64 
L 51.325 7.2 
" style="fill:none;stroke:#000000;stroke-linecap:square;stroke-linejoin:miter;stroke-width:0.8;"/>
   </g>
   <g id="patch_4">
    <path d="M 386.125 224.64 
L 386.125 7.2 
" style="fill:none;stroke:#000000;stroke-linecap:square;stroke-linejoin:miter;stroke-width:0.8;"/>
   </g>
   <g id="patch_5">
    <path d="M 51.325 224.64 
L 386.125 224.64 
" style="fill:none;stroke:#000000;stroke-linecap:square;stroke-linejoin:miter;stroke-width:0.8;"/>
   </g>
   <g id="patch_6">
    <path d="M 51.325 7.2 
L 386.125 7.2 
" style="fill:none;stroke:#000000;stroke-linecap:square;stroke-linejoin:miter;stroke-width:0.8;"/>
   </g>
   <g id="legend_1">
    <g id="patch_7">
     <path d="M 237.125 219.64 
L 379.125 219.64 
Q 381.125 219.64 381.125 217.64 
L 381.125 190.280625 
Q 381.125 188.280625 379.125 188.280625 
L 237.125 188.280625 
Q 235.125 188.280625 235.125 190.280625 
L 235.125 217.64 
Q 235.125 219.64 237.125 219.64 
z
" style="fill:#ffffff;opacity:0.8;stroke:#cccccc;stroke-linejoin:miter;"/>
    </g>
    <g id="line2d_20">
     <path d="M 239.125 196.67125 
L 259.125 196.67125 
" style="fill:none;stroke:#1f77b4;stroke-linecap:square;stroke-width:1.5;"/>
    </g>
    <g id="line2d_21"/>
    <g id="text_20">
     <!-- 种群个体平均目标函数值 -->
     <g transform="translate(267.125 200.17125)scale(0.1 -0.1)">
      <defs>
       <path d="M 14.0625 42.96875 
Q 9.765625 42.96875 6.25 42.578125 
L 6.25 49.609375 
Q 12.109375 49.21875 18.75 49.21875 
L 21.875 49.21875 
L 21.875 65.234375 
Q 17.96875 64.0625 8.984375 62.109375 
Q 7.421875 65.625 5.46875 69.53125 
Q 13.671875 69.921875 21.671875 71.875 
Q 29.6875 73.828125 36.328125 77.34375 
Q 38.28125 74.21875 41.796875 69.53125 
Q 37.890625 68.75 35.34375 68.15625 
Q 32.8125 67.578125 29.296875 66.796875 
L 29.296875 49.21875 
Q 34.375 49.21875 41.40625 49.609375 
L 41.40625 42.578125 
Q 34.375 42.96875 29.296875 42.96875 
L 29.296875 3.90625 
Q 29.296875 -1.171875 29.6875 -8.984375 
L 21.484375 -8.984375 
Q 21.875 -1.171875 21.875 3.90625 
L 21.875 28.515625 
Q 18.75 21.09375 16.203125 16.59375 
Q 13.671875 12.109375 9.765625 5.859375 
Q 6.640625 10.15625 3.90625 13.28125 
Q 9.375 19.140625 13.671875 26.5625 
Q 17.96875 33.984375 19.921875 42.96875 
z
M 29.296875 33.984375 
Q 31.640625 35.546875 35.546875 37.5 
Q 36.71875 35.15625 38.46875 32.421875 
Q 40.234375 29.6875 42.578125 25 
Q 39.0625 23.4375 36.328125 21.09375 
Q 34.375 25.390625 33 28.125 
Q 31.640625 30.859375 29.296875 33.984375 
z
M 72.265625 54.6875 
L 72.265625 28.125 
L 84.375 28.125 
L 84.375 54.6875 
z
M 44.921875 60.9375 
L 64.84375 60.9375 
Q 64.84375 75.390625 64.453125 79.6875 
L 72.65625 79.6875 
Q 72.265625 75.78125 72.265625 60.9375 
L 92.1875 60.9375 
Q 91.796875 56.640625 91.796875 49.609375 
L 91.796875 23.828125 
Q 91.796875 19.921875 92.1875 14.453125 
L 84.375 14.453125 
L 84.375 21.875 
L 72.265625 21.875 
L 72.265625 6.25 
Q 72.265625 -3.515625 72.65625 -9.765625 
L 64.453125 -9.765625 
Q 64.84375 -3.515625 64.84375 6.25 
L 64.84375 21.875 
L 52.734375 21.875 
L 52.734375 12.890625 
L 44.921875 12.890625 
Q 45.3125 17.578125 45.3125 23.046875 
L 45.3125 48.828125 
Q 45.3125 56.640625 44.921875 60.9375 
z
M 52.734375 54.6875 
L 52.734375 28.125 
L 64.84375 28.125 
L 64.84375 54.6875 
z
" id="SimHei-31181"/>
       <path d="M 23.4375 21.09375 
L 23.4375 5.859375 
L 39.0625 5.859375 
L 39.0625 21.09375 
z
M 46.09375 26.5625 
Q 45.703125 22.265625 45.703125 10.546875 
Q 45.703125 -1.171875 46.09375 -6.25 
L 39.0625 -6.25 
L 39.0625 0.390625 
L 23.4375 0.390625 
L 23.4375 -8.984375 
L 16.40625 -8.984375 
Q 16.796875 -3.125 16.796875 22.65625 
Q 13.28125 17.1875 10.15625 13.28125 
Q 7.8125 16.40625 3.90625 17.578125 
Q 8.203125 21.484375 11.90625 26.75 
Q 15.625 32.03125 17.1875 36.71875 
Q 13.671875 36.71875 9.375 36.328125 
L 9.375 42.578125 
Q 14.453125 42.1875 18.359375 42.1875 
Q 19.53125 48.046875 19.53125 52.734375 
Q 11.328125 52.734375 6.640625 52.34375 
L 6.640625 58.59375 
Q 11.71875 58.203125 19.53125 58.203125 
L 19.53125 69.53125 
Q 16.796875 69.53125 10.9375 69.140625 
L 10.9375 75.390625 
Q 16.40625 75 20.3125 75 
L 46.09375 75 
Q 45.703125 69.921875 45.703125 58.203125 
Q 48.046875 58.203125 51.5625 58.59375 
L 51.5625 52.34375 
Q 48.046875 52.734375 45.703125 52.734375 
Q 45.703125 41.40625 46.09375 36.71875 
L 23.828125 36.71875 
Q 21.484375 29.6875 19.53125 26.5625 
z
M 25.78125 69.53125 
L 25.78125 58.203125 
L 39.0625 58.203125 
L 39.0625 69.53125 
z
M 25.78125 52.734375 
Q 25.390625 48.046875 24.609375 42.1875 
L 39.0625 42.1875 
L 39.0625 52.734375 
z
M 68.75 68.359375 
Q 65.234375 66.796875 62.890625 64.84375 
Q 59.765625 70.703125 55.859375 76.171875 
Q 58.984375 77.34375 61.71875 79.6875 
Q 64.453125 75 68.75 68.359375 
z
M 91.40625 34.765625 
Q 86.328125 35.15625 75.78125 35.15625 
L 75.78125 19.921875 
Q 90.625 19.921875 94.53125 20.3125 
L 94.53125 14.0625 
Q 90.625 14.453125 75.78125 14.453125 
L 75.78125 3.515625 
Q 75.78125 -3.125 76.171875 -10.546875 
L 68.75 -10.546875 
Q 69.140625 -3.125 69.140625 3.515625 
L 69.140625 14.453125 
Q 55.859375 14.453125 50.390625 14.0625 
L 50.390625 20.3125 
Q 55.859375 19.921875 69.140625 19.921875 
L 69.140625 35.15625 
Q 57.8125 35.15625 53.515625 34.765625 
L 53.515625 41.015625 
Q 58.203125 40.625 69.140625 40.625 
L 69.140625 54.6875 
Q 60.9375 54.6875 54.6875 54.296875 
L 54.6875 60.546875 
Q 60.9375 60.15625 74.21875 60.15625 
Q 79.296875 69.921875 81.640625 80.078125 
Q 86.328125 78.125 91.015625 76.953125 
Q 88.671875 75 86.328125 70.890625 
Q 83.984375 66.796875 80.859375 60.15625 
Q 87.5 60.15625 92.578125 60.546875 
L 92.578125 54.296875 
Q 87.890625 54.6875 75.78125 54.6875 
L 75.78125 40.625 
L 81.640625 40.625 
L 91.40625 41.015625 
z
" id="SimHei-32676"/>
       <path d="M 56.25 77.734375 
Q 54.6875 76.171875 53.125 74.21875 
Q 67.96875 50.390625 95.3125 43.75 
Q 89.84375 37.890625 89.0625 33.984375 
Q 64.453125 44.140625 48.4375 67.96875 
Q 36.328125 46.484375 12.109375 32.8125 
Q 10.15625 36.71875 5.078125 40.625 
Q 22.65625 48.4375 32.609375 60.15625 
Q 42.578125 71.875 45.3125 81.25 
Q 50.78125 78.90625 56.25 77.734375 
z
M 44.921875 -10.15625 
Q 45.703125 -0.78125 45.703125 7.421875 
L 45.703125 35.15625 
Q 45.703125 41.40625 44.921875 50 
L 54.296875 50 
Q 53.515625 44.140625 53.515625 34.765625 
L 53.515625 7.8125 
Q 53.515625 -1.171875 54.296875 -10.15625 
z
" id="SimHei-20010"/>
       <path d="M 30.859375 60.15625 
Q 35.546875 59.765625 41.796875 59.765625 
L 57.03125 59.765625 
Q 57.03125 73.828125 56.640625 79.6875 
L 64.453125 79.6875 
Q 64.0625 74.21875 64.0625 59.765625 
L 81.25 59.765625 
Q 89.0625 59.765625 92.578125 60.15625 
L 92.578125 53.125 
Q 89.0625 53.515625 81.640625 53.515625 
L 69.921875 53.515625 
Q 75.390625 27.734375 96.484375 13.671875 
Q 92.1875 11.328125 90.234375 7.03125 
Q 69.140625 23.046875 64.0625 53.125 
L 64.0625 14.84375 
Q 73.828125 14.84375 77.34375 15.234375 
L 77.34375 8.203125 
Q 73.828125 8.59375 64.0625 8.59375 
Q 64.0625 0.78125 64.453125 -9.375 
L 56.640625 -9.375 
Q 57.03125 1.171875 57.03125 8.59375 
Q 51.5625 8.59375 43.75 8.203125 
L 43.75 15.234375 
Q 51.5625 14.84375 57.03125 14.84375 
L 57.03125 53.515625 
L 56.640625 53.515625 
Q 50.390625 22.65625 32.03125 5.859375 
Q 29.6875 9.375 25.390625 11.328125 
Q 43.75 25.390625 49.609375 53.515625 
L 41.796875 53.515625 
Q 35.546875 53.515625 30.859375 53.125 
z
M 22.265625 79.6875 
Q 26.5625 77.734375 31.25 76.171875 
Q 28.515625 72.65625 23.828125 58.59375 
L 23.828125 8.59375 
Q 23.828125 -3.515625 24.21875 -8.984375 
L 16.40625 -8.984375 
Q 16.796875 -3.90625 16.796875 8.203125 
L 16.796875 44.921875 
Q 14.84375 40.625 8.984375 31.640625 
Q 7.03125 35.15625 3.515625 37.5 
Q 8.203125 42.1875 14.453125 56.046875 
Q 20.703125 69.921875 22.265625 79.6875 
z
" id="SimHei-20307"/>
       <path d="M 14.453125 78.125 
Q 22.265625 77.734375 28.125 77.734375 
L 70.703125 77.734375 
Q 76.953125 77.734375 85.15625 78.125 
L 85.15625 70.703125 
Q 77.34375 71.09375 70.703125 71.09375 
L 54.6875 71.09375 
L 54.6875 31.25 
L 78.90625 31.25 
Q 87.109375 31.25 94.140625 31.640625 
L 94.140625 24.21875 
Q 87.109375 24.609375 78.90625 24.609375 
L 54.6875 24.609375 
L 54.6875 5.859375 
Q 54.6875 -1.171875 55.078125 -10.15625 
L 46.484375 -10.15625 
Q 46.875 -1.171875 46.875 5.859375 
L 46.875 24.609375 
L 18.359375 24.609375 
Q 12.890625 24.609375 6.640625 24.21875 
L 6.640625 31.640625 
Q 12.890625 31.25 18.75 31.25 
L 46.875 31.25 
L 46.875 71.09375 
L 28.515625 71.09375 
Q 22.265625 71.09375 14.453125 70.703125 
z
M 35.546875 42.96875 
Q 31.640625 41.796875 28.125 39.453125 
Q 25.390625 48.828125 19.53125 58.203125 
Q 23.046875 59.375 26.171875 61.71875 
Q 32.03125 51.5625 35.546875 42.96875 
z
M 71.09375 37.890625 
Q 67.578125 40.234375 63.671875 41.40625 
Q 70.703125 51.5625 74.21875 62.5 
Q 78.125 60.15625 82.8125 58.59375 
Q 76.953125 49.609375 71.09375 37.890625 
z
" id="SimHei-24179"/>
       <path d="M 91.015625 62.5 
L 88.28125 5.078125 
Q 88.28125 -3.90625 81.828125 -5.65625 
Q 75.390625 -7.421875 67.578125 -7.8125 
Q 66.796875 -3.125 64.84375 1.171875 
Q 75.390625 0.390625 78.125 1.75 
Q 80.859375 3.125 80.859375 8.203125 
L 83.203125 55.859375 
L 55.859375 55.859375 
Q 53.515625 51.171875 50.96875 46.484375 
Q 48.4375 41.796875 44.921875 36.71875 
Q 41.40625 39.0625 37.5 40.625 
Q 41.40625 44.921875 44.328125 49.796875 
Q 47.265625 54.6875 49.21875 59.765625 
Q 51.171875 64.84375 52.53125 69.71875 
Q 53.90625 74.609375 54.6875 78.515625 
Q 59.375 76.953125 64.84375 75.78125 
Q 63.28125 73.4375 61.71875 70.3125 
Q 60.15625 67.1875 58.59375 62.5 
z
M 54.296875 42.578125 
Q 57.03125 44.53125 60.15625 46.484375 
Q 64.0625 41.796875 68.75 33.203125 
Q 64.84375 31.25 62.109375 29.296875 
Q 59.765625 34.765625 54.296875 42.578125 
z
M 75.78125 28.515625 
Q 76.171875 25 77.34375 21.484375 
Q 72.65625 19.53125 63.859375 16.203125 
Q 55.078125 12.890625 46.484375 8.59375 
Q 45.3125 13.28125 43.359375 17.1875 
Q 54.296875 19.921875 58.78125 21.484375 
Q 63.28125 23.046875 75.78125 28.515625 
z
M 7.03125 55.46875 
Q 12.890625 55.078125 16.796875 55.078125 
L 19.140625 55.078125 
L 19.140625 66.796875 
Q 19.140625 72.65625 18.75 77.34375 
L 26.953125 77.34375 
Q 26.5625 71.875 26.5625 66.796875 
L 26.5625 55.078125 
L 28.90625 55.078125 
Q 33.59375 55.078125 38.671875 55.46875 
L 38.671875 48.046875 
Q 33.59375 48.4375 28.90625 48.4375 
L 26.5625 48.4375 
L 26.5625 17.1875 
L 38.28125 21.09375 
Q 37.890625 17.578125 38.671875 14.0625 
Q 18.75 7.421875 14.640625 5.859375 
Q 10.546875 4.296875 7.03125 2.734375 
Q 5.46875 7.421875 3.515625 11.71875 
Q 8.59375 12.5 12.109375 13.28125 
Q 15.625 14.0625 19.140625 15.234375 
L 19.140625 48.4375 
L 17.1875 48.4375 
Q 12.890625 48.4375 7.03125 48.046875 
z
" id="SimHei-22343"/>
       <path d="M 28.125 46.09375 
L 28.125 28.125 
L 73.828125 28.125 
L 73.828125 46.09375 
z
M 28.125 22.265625 
L 28.125 3.515625 
L 73.828125 3.515625 
L 73.828125 22.265625 
z
M 28.125 69.140625 
L 28.125 51.953125 
L 73.828125 51.953125 
L 73.828125 69.140625 
z
M 19.53125 75 
L 81.640625 75 
Q 81.25 64.0625 81.25 53.90625 
L 81.25 8.203125 
Q 81.25 2.34375 81.640625 -9.765625 
L 73.828125 -9.765625 
L 73.828125 -2.34375 
L 28.125 -2.34375 
L 28.125 -9.375 
L 19.921875 -9.375 
Q 20.703125 1.171875 20.703125 7.421875 
L 20.703125 53.90625 
Q 20.3125 65.234375 19.53125 75 
z
" id="SimHei-30446"/>
       <path d="M 5.078125 59.375 
Q 10.9375 58.59375 18.359375 58.984375 
L 18.359375 68.359375 
Q 18.359375 74.609375 17.96875 80.46875 
L 26.171875 80.46875 
Q 25.390625 75 25.390625 68.359375 
L 25.390625 58.984375 
Q 31.640625 58.984375 39.453125 59.375 
L 39.453125 51.5625 
Q 31.640625 52.34375 25.390625 52.34375 
L 25.390625 35.546875 
Q 28.90625 37.5 31.640625 39.453125 
Q 35.9375 33.203125 40.625 25.78125 
Q 36.328125 23.828125 33.203125 21.484375 
Q 30.078125 28.90625 25.390625 35.546875 
L 25.390625 7.03125 
Q 25.390625 -1.171875 25.78125 -9.375 
L 17.96875 -9.375 
Q 18.359375 -0.78125 18.359375 7.03125 
L 18.359375 33.203125 
Q 14.84375 22.65625 8.984375 12.109375 
Q 7.03125 16.015625 3.515625 19.140625 
Q 8.59375 25.390625 12.109375 34.5625 
Q 15.625 43.75 17.1875 52.34375 
Q 10.546875 52.34375 5.078125 51.5625 
z
M 44.140625 74.21875 
Q 49.609375 73.828125 56.25 73.828125 
L 75.390625 73.828125 
Q 81.25 73.828125 86.328125 74.21875 
L 86.328125 66.40625 
Q 81.25 67.1875 75.390625 67.1875 
L 56.25 67.1875 
Q 50 67.1875 44.140625 66.40625 
z
M 39.84375 49.609375 
Q 44.921875 49.21875 52.734375 49.21875 
L 80.46875 49.21875 
Q 86.71875 49.21875 92.578125 49.609375 
L 92.578125 42.1875 
Q 86.71875 42.578125 80.46875 42.578125 
L 67.96875 42.578125 
L 67.96875 1.953125 
Q 67.96875 -5.078125 64.640625 -6.4375 
Q 61.328125 -7.8125 53.90625 -9.375 
Q 53.125 -4.6875 50.78125 0 
Q 57.03125 -0.390625 58.984375 0.1875 
Q 60.9375 0.78125 60.9375 4.6875 
L 60.9375 42.578125 
L 52.734375 42.578125 
Q 44.53125 42.578125 39.84375 41.796875 
z
M 47.265625 32.03125 
Q 51.5625 30.078125 55.859375 28.90625 
Q 53.90625 26.953125 49.796875 16.59375 
Q 45.703125 6.25 42.1875 -0.78125 
Q 38.671875 1.171875 34.375 2.734375 
Q 39.0625 9.375 42.375 17.375 
Q 45.703125 25.390625 47.265625 32.03125 
z
M 72.265625 27.734375 
Q 75.78125 29.6875 78.90625 32.421875 
Q 88.28125 19.921875 94.921875 9.375 
Q 91.015625 7.421875 87.5 4.296875 
Q 80.859375 16.40625 72.265625 27.734375 
z
" id="SimHei-26631"/>
       <path d="M 16.015625 72.65625 
Q 23.046875 72.265625 29.6875 72.265625 
L 83.59375 72.265625 
L 83.59375 64.453125 
Q 77.34375 62.890625 67.96875 58.984375 
Q 58.59375 55.078125 53.515625 52.34375 
L 53.515625 16.015625 
Q 53.515625 8.984375 49.21875 7.8125 
Q 44.921875 6.640625 38.671875 5.46875 
Q 37.890625 9.765625 35.9375 14.453125 
Q 42.1875 14.0625 44.140625 14.84375 
Q 46.09375 15.625 46.09375 19.921875 
L 46.09375 45.703125 
Q 46.09375 52.734375 45.3125 57.03125 
Q 50.78125 58.59375 57.609375 61.328125 
Q 64.453125 64.0625 67.578125 66.015625 
L 29.6875 66.015625 
Q 21.875 66.015625 16.015625 65.625 
z
M 40.234375 43.359375 
Q 37.890625 40.625 35.546875 37.890625 
Q 32.8125 41.015625 29.875 43.75 
Q 26.953125 46.484375 23.046875 49.609375 
Q 25.390625 52.34375 27.34375 55.078125 
Q 30.859375 51.953125 34.171875 48.828125 
Q 37.5 45.703125 40.234375 43.359375 
z
M 39.0625 32.8125 
Q 39.84375 29.6875 41.40625 26.171875 
Q 37.890625 23.828125 33.78125 21.09375 
Q 29.6875 18.359375 24.609375 14.0625 
Q 22.65625 17.1875 19.921875 21.09375 
Q 25.390625 23.828125 30.078125 26.5625 
Q 34.765625 29.296875 39.0625 32.8125 
z
M 70.703125 53.125 
Q 73.4375 50 76.5625 47.265625 
Q 73.828125 46.09375 69.921875 43.359375 
Q 66.015625 40.625 61.71875 37.5 
Q 59.375 40.234375 57.03125 42.578125 
Q 61.328125 45.3125 64.25 47.453125 
Q 67.1875 49.609375 70.703125 53.125 
z
M 55.859375 26.953125 
Q 58.59375 29.6875 60.9375 32.03125 
Q 64.0625 29.6875 67.96875 26.5625 
Q 71.875 23.4375 76.171875 19.53125 
Q 73.4375 16.796875 70.703125 13.28125 
Q 67.1875 17.1875 64.25 19.921875 
Q 61.328125 22.65625 55.859375 26.953125 
z
M 19.140625 45.703125 
Q 18.359375 41.40625 18.359375 36.71875 
L 18.359375 2.734375 
L 80.078125 2.734375 
L 80.078125 32.8125 
Q 80.078125 38.671875 79.296875 44.140625 
L 87.5 44.140625 
Q 87.109375 37.109375 87.109375 32.8125 
L 87.109375 0.390625 
Q 87.109375 -4.6875 87.5 -9.765625 
L 80.078125 -9.765625 
L 80.078125 -3.90625 
L 10.15625 -3.90625 
Q 10.9375 0.390625 10.9375 20.3125 
Q 10.9375 40.234375 10.546875 45.703125 
z
" id="SimHei-20989"/>
       <path d="M 10.9375 75.78125 
Q 14.84375 76.953125 17.1875 78.515625 
Q 20.3125 73.4375 23.046875 68.359375 
Q 19.53125 66.796875 16.796875 65.234375 
Q 14.453125 71.09375 10.9375 75.78125 
z
M 44.921875 78.515625 
Q 49.21875 76.5625 53.125 75 
Q 50.78125 73.4375 49.21875 70.703125 
Q 47.65625 67.96875 45.703125 64.453125 
Q 42.578125 66.015625 39.453125 66.796875 
Q 42.578125 71.875 44.921875 78.515625 
z
M 38.28125 49.609375 
Q 41.796875 51.171875 44.140625 53.515625 
Q 48.828125 46.875 51.953125 41.40625 
Q 48.4375 39.84375 45.3125 37.5 
Q 42.1875 44.921875 38.28125 49.609375 
z
M 8.203125 61.71875 
Q 14.453125 61.328125 28.125 61.328125 
Q 28.125 72.65625 27.734375 80.859375 
L 35.546875 80.859375 
Q 35.15625 72.65625 35.15625 61.328125 
Q 48.046875 61.328125 53.90625 61.71875 
L 53.90625 54.6875 
Q 48.046875 55.078125 35.15625 55.078125 
Q 35.15625 46.09375 35.546875 39.453125 
L 27.734375 39.453125 
Q 28.125 45.3125 28.125 51.953125 
Q 26.171875 48.046875 21.671875 43.546875 
Q 17.1875 39.0625 11.71875 35.9375 
Q 10.15625 39.453125 6.640625 41.796875 
Q 10.15625 42.96875 15.421875 46.875 
Q 20.703125 50.78125 23.046875 55.078125 
Q 14.84375 55.078125 8.203125 54.6875 
z
M 26.953125 24.21875 
Q 25 20.3125 22.65625 16.40625 
Q 27.34375 15.234375 35.15625 13.28125 
Q 37.890625 16.796875 40.234375 24.21875 
z
M 24.21875 38.28125 
Q 28.515625 36.71875 32.8125 35.546875 
Q 31.25 33.984375 29.296875 30.46875 
L 44.53125 30.46875 
L 48.828125 30.46875 
Q 46.484375 20.3125 42.1875 11.328125 
Q 48.828125 9.375 52.734375 8.203125 
Q 49.609375 3.90625 48.046875 0.390625 
Q 44.53125 2.734375 37.5 5.46875 
Q 28.125 -3.90625 9.375 -10.15625 
Q 7.8125 -6.25 4.6875 -3.90625 
Q 21.484375 0 31.25 8.203125 
Q 20.3125 10.9375 13.28125 12.890625 
Q 15.625 16.015625 19.53125 24.21875 
Q 13.28125 24.21875 4.6875 23.828125 
L 4.6875 30.859375 
Q 12.109375 30.46875 21.875 30.46875 
Q 23.046875 33.59375 24.21875 38.28125 
z
M 63.671875 80.46875 
Q 68.359375 78.515625 73.4375 77.734375 
Q 71.484375 75.390625 70.5 72.265625 
Q 69.53125 69.140625 67.96875 63.28125 
L 85.546875 63.28125 
Q 89.0625 63.28125 94.53125 63.671875 
L 94.53125 56.640625 
Q 90.234375 57.03125 87.5 57.03125 
Q 87.109375 48.828125 85.546875 35.34375 
Q 83.984375 21.875 78.125 11.71875 
Q 82.03125 6.25 87.109375 2.734375 
Q 92.1875 -0.78125 96.09375 -2.34375 
Q 90.625 -5.859375 89.0625 -9.375 
Q 82.421875 -4.6875 79.296875 -1.359375 
Q 76.171875 1.953125 73.4375 5.859375 
Q 68.75 1.171875 64.640625 -1.953125 
Q 60.546875 -5.078125 51.5625 -10.15625 
Q 49.609375 -6.640625 45.3125 -3.90625 
Q 52.734375 -1.171875 58.984375 3.125 
Q 65.234375 7.421875 69.53125 12.109375 
Q 65.234375 20.703125 62.890625 29.09375 
Q 60.546875 37.5 60.15625 41.015625 
Q 59.375 38.28125 58.203125 34.765625 
Q 54.6875 36.328125 50.390625 37.890625 
Q 55.078125 46.484375 58.984375 58.59375 
Q 62.890625 70.703125 63.671875 80.46875 
z
M 66.40625 57.03125 
Q 64.84375 53.125 64.0625 50.578125 
Q 63.28125 48.046875 66.984375 36.71875 
Q 70.703125 25.390625 74.21875 19.140625 
Q 77.734375 28.515625 79.09375 38.671875 
Q 80.46875 48.828125 80.46875 57.03125 
z
" id="SimHei-25968"/>
       <path d="M 47.65625 9.375 
L 47.65625 1.953125 
L 76.5625 1.953125 
L 76.5625 9.375 
z
M 34.765625 70.3125 
Q 39.453125 69.921875 49.609375 69.921875 
L 57.421875 69.921875 
Q 57.421875 74.609375 57.421875 80.078125 
Q 62.109375 79.6875 67.578125 79.296875 
Q 65.625 76.5625 65.234375 69.921875 
L 79.6875 69.921875 
Q 86.71875 69.921875 91.40625 70.3125 
L 91.40625 63.28125 
Q 86.328125 63.671875 79.6875 63.671875 
L 64.84375 63.671875 
L 64.0625 55.078125 
L 84.375 55.078125 
Q 83.984375 50.390625 83.984375 42.1875 
L 83.984375 1.953125 
Q 91.40625 1.953125 94.921875 2.34375 
L 94.921875 -4.6875 
Q 89.84375 -4.296875 80.859375 -4.296875 
L 44.140625 -4.296875 
Q 35.546875 -4.296875 29.6875 -4.6875 
L 29.6875 2.34375 
Q 33.203125 1.953125 40.234375 1.953125 
L 40.234375 42.1875 
Q 40.234375 49.609375 39.84375 55.078125 
L 56.25 55.078125 
L 57.03125 63.671875 
L 49.609375 63.671875 
Q 39.84375 63.671875 34.765625 63.28125 
z
M 47.65625 49.21875 
L 47.65625 41.40625 
L 76.5625 41.40625 
L 76.5625 49.21875 
z
M 47.65625 35.546875 
L 47.65625 28.515625 
L 76.5625 28.515625 
L 76.5625 35.546875 
z
M 47.65625 22.65625 
L 47.65625 15.234375 
L 76.5625 15.234375 
L 76.5625 22.65625 
z
M 25.390625 80.859375 
Q 30.859375 78.125 34.765625 76.953125 
Q 31.640625 73.4375 25.78125 58.984375 
L 25.78125 6.640625 
Q 25.78125 -1.5625 26.171875 -8.984375 
L 17.96875 -8.984375 
Q 18.359375 -2.34375 18.359375 5.46875 
L 18.359375 46.09375 
Q 13.28125 38.28125 9.765625 33.59375 
Q 6.640625 37.890625 3.90625 40.234375 
Q 7.8125 44.140625 14.640625 55.46875 
Q 21.484375 66.796875 25.390625 80.859375 
z
" id="SimHei-20540"/>
      </defs>
      <use xlink:href="#SimHei-31181"/>
      <use x="100" xlink:href="#SimHei-32676"/>
      <use x="200" xlink:href="#SimHei-20010"/>
      <use x="300" xlink:href="#SimHei-20307"/>
      <use x="400" xlink:href="#SimHei-24179"/>
      <use x="500" xlink:href="#SimHei-22343"/>
      <use x="600" xlink:href="#SimHei-30446"/>
      <use x="700" xlink:href="#SimHei-26631"/>
      <use x="800" xlink:href="#SimHei-20989"/>
      <use x="900" xlink:href="#SimHei-25968"/>
      <use x="1000" xlink:href="#SimHei-20540"/>
     </g>
    </g>
    <g id="line2d_22">
     <path d="M 239.125 210.850937 
L 259.125 210.850937 
" style="fill:none;stroke:#ff7f0e;stroke-linecap:square;stroke-width:1.5;"/>
    </g>
    <g id="line2d_23"/>
    <g id="text_21">
     <!-- 种群最优个体目标函数值 -->
     <g transform="translate(267.125 214.350937)scale(0.1 -0.1)">
      <defs>
       <path d="M 24.21875 39.0625 
L 24.21875 32.03125 
L 41.015625 32.03125 
L 41.015625 39.0625 
z
M 24.21875 26.5625 
L 24.21875 19.921875 
L 41.015625 19.921875 
L 41.015625 26.5625 
z
M 24.21875 14.453125 
L 24.21875 6.640625 
L 41.015625 8.984375 
L 41.015625 14.453125 
z
M 10.15625 -3.515625 
Q 8.59375 0.78125 7.421875 4.6875 
Q 10.546875 4.6875 17.1875 5.46875 
L 17.1875 39.0625 
Q 12.5 39.0625 6.640625 38.671875 
L 6.640625 44.921875 
Q 12.5 44.53125 17.578125 44.53125 
L 78.90625 44.53125 
Q 85.9375 44.53125 92.1875 44.921875 
L 92.1875 38.671875 
Q 85.9375 39.0625 78.90625 39.0625 
L 48.046875 39.0625 
L 48.046875 10.546875 
Q 50.390625 10.9375 53.125 11.71875 
Q 53.125 8.59375 53.125 5.078125 
Q 50.390625 5.078125 48.046875 4.296875 
Q 48.046875 -1.953125 48.4375 -7.8125 
L 41.015625 -7.8125 
Q 41.015625 -1.953125 41.015625 3.515625 
Q 36.71875 2.734375 28.125 0.96875 
Q 19.53125 -0.78125 10.15625 -3.515625 
z
M 56.25 -9.375 
Q 54.296875 -7.03125 50.78125 -3.515625 
Q 55.46875 -1.953125 58.78125 0.1875 
Q 62.109375 2.34375 65.234375 5.859375 
Q 62.890625 7.8125 60.15625 11.90625 
Q 57.421875 16.015625 54.6875 26.953125 
Q 57.03125 26.953125 60.9375 27.34375 
Q 62.109375 17.1875 69.140625 10.546875 
Q 71.484375 13.671875 73.234375 17.96875 
Q 75 22.265625 76.171875 26.5625 
L 64.453125 26.5625 
Q 58.984375 26.5625 51.5625 26.171875 
L 51.5625 32.421875 
Q 58.984375 32.03125 64.453125 32.03125 
L 84.375 32.03125 
Q 82.03125 22.65625 79.6875 16.984375 
Q 77.34375 11.328125 74.21875 6.640625 
Q 77.34375 4.6875 81.25 3.125 
Q 85.15625 1.5625 92.578125 0.390625 
Q 90.625 -2.34375 89.0625 -7.03125 
Q 82.421875 -4.6875 78.125 -2.53125 
Q 73.828125 -0.390625 70.3125 1.953125 
Q 67.578125 -0.78125 64.84375 -3.125 
Q 62.109375 -5.46875 56.25 -9.375 
z
M 27.734375 73.046875 
L 27.734375 67.578125 
L 72.265625 67.578125 
L 72.265625 73.046875 
z
M 27.734375 62.109375 
L 27.734375 57.03125 
L 72.265625 57.03125 
L 72.265625 62.109375 
z
M 19.921875 78.515625 
L 80.078125 78.515625 
Q 79.6875 73.046875 79.6875 68.75 
L 79.6875 61.71875 
Q 79.6875 57.421875 80.078125 51.5625 
L 19.921875 51.5625 
Q 20.3125 57.421875 20.3125 61.71875 
L 20.3125 68.75 
Q 20.3125 73.046875 19.921875 78.515625 
z
" id="SimHei-26368"/>
       <path d="M 37.5 -8.59375 
Q 34.765625 -5.078125 29.6875 -3.515625 
Q 49.609375 10.546875 52.34375 47.265625 
L 45.3125 47.265625 
Q 37.109375 47.265625 31.25 46.875 
L 31.25 53.90625 
Q 37.109375 53.515625 45.3125 53.515625 
L 52.734375 53.515625 
Q 52.734375 72.65625 52.34375 79.6875 
Q 55.078125 78.90625 61.328125 78.515625 
Q 60.15625 72.65625 60.15625 53.515625 
L 80.859375 53.515625 
Q 85.15625 53.515625 91.796875 53.90625 
L 91.796875 46.875 
Q 85.546875 47.265625 81.25 47.265625 
L 60.15625 47.265625 
Q 58.203125 9.375 37.5 -8.59375 
z
M 69.140625 73.046875 
Q 71.875 75 75.390625 77.734375 
Q 77.734375 74.21875 80.078125 70.890625 
Q 82.421875 67.578125 84.765625 64.84375 
Q 81.640625 62.890625 78.125 60.15625 
Q 75.78125 64.453125 69.140625 73.046875 
z
M 87.5 12.109375 
Q 90.234375 9.765625 96.09375 8.203125 
Q 93.75 -0.390625 91.59375 -3.125 
Q 89.453125 -5.859375 85.15625 -6.25 
L 73.046875 -6.25 
Q 64.84375 -6.25 64.84375 3.125 
L 64.84375 47.265625 
L 72.265625 47.265625 
L 72.265625 5.46875 
Q 71.875 1.5625 75 0.78125 
Q 78.125 0 80.859375 0.1875 
Q 83.59375 0.390625 84.953125 1.953125 
Q 86.328125 3.515625 87.5 12.109375 
z
M 9.375 30.46875 
Q 7.421875 33.984375 3.90625 36.71875 
Q 8.984375 41.796875 16.203125 55.859375 
Q 23.4375 69.921875 25.390625 80.46875 
Q 29.296875 78.125 35.15625 76.171875 
Q 31.640625 72.65625 26.953125 59.375 
L 26.953125 9.375 
Q 26.953125 -2.34375 27.34375 -8.203125 
L 19.140625 -8.203125 
Q 19.53125 -2.734375 19.53125 8.984375 
L 19.53125 46.09375 
Q 14.453125 37.5 9.375 30.46875 
z
" id="SimHei-20248"/>
      </defs>
      <use xlink:href="#SimHei-31181"/>
      <use x="100" xlink:href="#SimHei-32676"/>
      <use x="200" xlink:href="#SimHei-26368"/>
      <use x="300" xlink:href="#SimHei-20248"/>
      <use x="400" xlink:href="#SimHei-20010"/>
      <use x="500" xlink:href="#SimHei-20307"/>
      <use x="600" xlink:href="#SimHei-30446"/>
      <use x="700" xlink:href="#SimHei-26631"/>
      <use x="800" xlink:href="#SimHei-20989"/>
      <use x="900" xlink:href="#SimHei-25968"/>
      <use x="1000" xlink:href="#SimHei-20540"/>
     </g>
    </g>
   </g>
  </g>
 </g>
 <defs>
  <clipPath id="p9993c85b04">
   <rect height="217.44" width="334.8" x="51.325" y="7.2"/>
  </clipPath>
 </defs>
</svg>
